<svg width="100" height="98" viewBox="0 0 100 98" fill="none" xmlns="http://www.w3.org/2000/svg">
<path d="M75 25C75 38.8071 63.8071 50 50 50C36.1929 50 25 38.8071 25 25C25 11.1929 36.1929 0 50 0C63.8071 0 75 11.1929 75 25Z" fill="#D46332"/>
<path d="M100 41.5C100 55.3071 88.8071 66.5 75 66.5C61.1929 66.5 50 55.3071 50 41.5C50 27.6929 61.1929 16.5 75 16.5C88.8071 16.5 100 27.6929 100 41.5Z" fill="#D46332"/>
<path d="M90.5 73C90.5 86.8071 79.3071 98 65.5 98C51.6929 98 40.5 86.8071 40.5 73C40.5 59.1929 51.6929 48 65.5 48C79.3071 48 90.5 59.1929 90.5 73Z" fill="#D46332"/>
<path d="M60 73C60 86.8071 48.8071 98 35 98C21.1929 98 10 86.8071 10 73C10 59.1929 21.1929 48 35 48C48.8071 48 60 59.1929 60 73Z" fill="#D46332"/>
<path d="M50 41.5C50 55.3071 38.8071 66.5 25 66.5C11.1929 66.5 0 55.3071 0 41.5C0 27.6929 11.1929 16.5 25 16.5C38.8071 16.5 50 27.6929 50 41.5Z" fill="#D46332"/>
<path d="M75 52C75 65.8071 63.8071 77 50 77C36.1929 77 25 65.8071 25 52C25 38.1929 36.1929 27 50 27C63.8071 27 75 38.1929 75 52Z" fill="#F6D3A2"/>
</svg>
